<svg width="30" height="26" viewBox="0 0 30 26" xmlns="http://www.w3.org/2000/svg">
<path d="M14.4972 0.13539L0.596778 7.08462C0.245319 7.23967 0 7.59118 0 8C0 8.40885 0.245355 8.76039 0.596856 8.91541L14.4972 15.8646C14.6449 15.9507 14.8167 16 15 16C15.1833 16 15.355 15.9507 15.5027 15.8647L29.4034 8.91532C29.7547 8.76024 30 8.40876 30 8C30 7.59127 29.7548 7.23981 29.4034 7.08472L15.5026 0.135301C15.3549 0.0492768 15.1832 0 15 0C14.8167 0 14.6449 0.0493107 14.4972 0.13539Z"/>
<path d="M16.366 17.6691C16.282 17.7111 16.197 17.7461 16.111 17.7751C15.749 17.9241 15.377 18.0001 15 18.0001C14.624 18.0001 14.253 17.9251 13.893 17.7761C13.806 17.7471 13.719 17.7111 13.634 17.6681L6 13.8521V18.0001C6 20.7611 10.029 23.0001 15 23.0001C19.971 23.0001 24 20.7611 24 18.0001V13.8521L16.366 17.6691Z"/>
<path d="M27 12.353V20.2674C26.4021 20.613 26 21.2593 26 22C26 23.105 28 26 28 26C28 26 30 23.105 30 22C30 21.2593 29.5979 20.613 29 20.2674V11.353L27 12.353Z"/>
</svg>
