<svg width="26" height="26" viewBox="0 0 26 26" xmlns="http://www.w3.org/2000/svg">
<path d="M10.5 9.5L7 6L6 3L2 1L0 3L2 7L5 8L8.5 11.5L10.5 9.5Z"/>
<path d="M14.758 19.401L19.577 24.22C20.617 25.26 22.302 25.26 23.341 24.22C24.381 23.18 24.381 21.495 23.341 20.455L18.522 15.636L14.758 19.401Z"/>
<path fill-rule="evenodd" clip-rule="evenodd" d="M21.998 9.00299L18.797 8.20299L17.997 5.00199L21.703 1.29599C19.574 0.618987 17.152 1.11999 15.463 2.80799C13.8227 4.44833 13.656 6.42548 14.4771 8.28095L2.879 19.879C1.707 21.051 1.707 22.95 2.879 24.122C4.051 25.294 5.95 25.294 7.122 24.122L18.7208 12.5232C20.5758 13.3433 22.5522 13.1765 24.192 11.536C25.881 9.84699 26.382 7.42499 25.704 5.29699L21.998 9.00299ZM5 23C4.448 23 4 22.552 4 22C4 21.448 4.448 21 5 21C5.552 21 6 21.448 6 22C6 22.552 5.552 23 5 23Z"/>
</svg>
