<svg width="22" height="26" viewBox="0 0 22 26" xmlns="http://www.w3.org/2000/svg">
<path d="M3 7C4.65685 7 6 5.65685 6 4C6 2.34315 4.65685 1 3 1C1.34315 1 0 2.34315 0 4C0 5.65685 1.34315 7 3 7Z"/>
<path d="M12 11H7C6.448 11 6 11.448 6 12V23.967C6 24.537 5.537 25 4.967 25C4.423 25 3.972 24.578 3.936 24.035L3.498 17.465C3.48 17.204 3.263 17 3 17C2.737 17 2.52 17.204 2.502 17.466L2.064 24.036C2.028 24.578 1.577 25 1.033 25C0.463 25 0 24.537 0 23.967V11C0 9.895 0.895 9 2 9H12C12.5523 9 13 9.44771 13 10C13 10.5523 12.5523 11 12 11Z"/>
<path d="M14 3H21C21.5523 3 22 3.44772 22 4V16C22 16.5523 21.5523 17 21 17H16.2808L17.9701 23.7575C18.1041 24.2933 17.7783 24.8362 17.2425 24.9701C16.7067 25.1041 16.1638 24.7783 16.0299 24.2425L14.2192 17H11.7808L9.97013 24.2425C9.83619 24.7783 9.29325 25.1041 8.75746 24.9701C8.22166 24.8362 7.8959 24.2933 8.02985 23.7575L9.71921 17H8V15H10.9772C10.9919 14.9997 11.0065 14.9997 11.0213 15H14.9787C14.9934 14.9997 15.0081 14.9997 15.0228 15H20V5H8V3H12C12 2.44772 12.4477 2 13 2C13.5523 2 14 2.44772 14 3Z"/>
</svg>
