<?xml version="1.0" standalone="no"?>
<!DOCTYPE svg PUBLIC "-//W3C//DTD SVG 20010904//EN"
 "http://www.w3.org/TR/2001/REC-SVG-20010904/DTD/svg10.dtd">
<svg version="1.0" xmlns="http://www.w3.org/2000/svg"
 width="700.000000pt" height="700.000000pt" viewBox="0 0 700.000000 700.000000"
 preserveAspectRatio="xMidYMid meet">
<metadata>
Created by potrace 1.11, written by Peter Selinger 2001-2013
</metadata>
<g transform="translate(0.000000,700.000000) scale(0.100000,-0.100000)"
fill="#000000" stroke="none">
<path d="M1570 6989 c-711 -75 -1325 -603 -1504 -1291 -64 -247 -61 -133 -61
-2198 0 -1753 1 -1882 18 -1990 44 -281 128 -500 275 -721 176 -262 405 -465
682 -604 86 -43 265 -115 287 -115 3 0 -24 32 -60 70 -192 207 -306 650 -325
1255 -4 127 -5 1076 -2 2110 6 2041 3 1909 59 2070 31 89 107 208 181 284 135
138 302 224 488 251 54 8 621 10 1937 8 l1860 -3 76 -22 c319 -91 537 -317
617 -642 15 -59 17 -250 20 -1881 3 -1891 2 -1931 -39 -2082 -75 -270 -291
-487 -574 -575 l-90 -28 -1392 -3 -1393 -3 0 436 0 435 1123 0 c1208 0 1177
-1 1279 51 67 34 142 113 172 178 14 33 31 92 36 133 13 104 13 2704 -1 2788
-20 125 -76 213 -181 281 -116 74 -18 70 -1583 67 l-1400 -3 -55 -22 c-120
-49 -214 -151 -251 -273 -19 -64 -19 -96 -16 -2155 l3 -2090 21 -95 c25 -105
89 -245 150 -325 102 -133 272 -221 503 -262 85 -14 246 -17 1503 -20 1242 -3
1423 -2 1530 12 440 57 830 271 1114 608 231 275 361 574 405 927 19 156 19
3734 0 3900 -96 818 -756 1462 -1577 1540 -131 12 -3719 12 -3835 -1z m2790
-3489 l0 -870 -865 0 -865 0 0 870 0 870 865 0 865 0 0 -870z"/>
</g>
</svg>
