<svg xmlns="http://www.w3.org/2000/svg" xmlns:xlink="http://www.w3.org/1999/xlink" aria-hidden="true" focusable="false" width="0.79em" height="1em" style="font-size: 16px; vertical-align: -0.143em; transform: rotate(360deg);" preserveAspectRatio="xMidYMid meet" viewBox="0 -128 1408 1792" class="dw-icons fa fa-android iconify" data-inline="true" data-icon="fa:android"><title></title><path d="M493 355q16 0 27.5-11.5T532 316t-11.5-27.5T493 277t-27 11.5t-11 27.5t11 27.5t27 11.5zm422 0q16 0 27-11.5t11-27.5t-11-27.5t-27-11.5t-27.5 11.5T876 316t11.5 27.5T915 355zM103 539q42 0 72 30t30 72v430q0 43-29.5 73t-72.5 30t-73-30t-30-73V641q0-42 30-72t73-30zm1060 19v666q0 46-32 78t-77 32h-75v227q0 43-30 73t-73 30t-73-30t-30-73v-227H635v227q0 43-30 73t-73 30q-42 0-72-30t-30-73l-1-227h-74q-46 0-78-32t-32-78V558h918zM931 153q107 55 171 153.5t64 215.5H241q0-117 64-215.5T477 153L406 22q-7-13 5-20q13-6 20 6l72 132q95-42 201-42t201 42L977 8q7-12 20-6q12 7 5 20zm477 488v430q0 43-30 73t-73 30q-42 0-72-30t-30-73V641q0-43 30-72.5t72-29.5q43 0 73 29.5t30 72.5z" fill="currentColor"></path></svg>
