<svg xmlns="http://www.w3.org/2000/svg" xmlns:xlink="http://www.w3.org/1999/xlink" aria-hidden="true" focusable="false" width="0.79em" height="1em" style="font-size: 16px; vertical-align: -0.143em; transform: rotate(360deg);" preserveAspectRatio="xMidYMid meet" viewBox="0 0 1408 1792" class="dw-icons fa fa-apple iconify" data-inline="true" data-icon="fa:apple"><title></title><path d="M1393 1215q-39 125-123 250q-129 196-257 196q-49 0-140-32q-86-32-151-32q-61 0-142 33q-81 34-132 34q-152 0-301-259Q0 1144 0 902q0-228 113-374q113-144 284-144q72 0 177 30q104 30 138 30q45 0 143-34q102-34 173-34q119 0 213 65q52 36 104 100q-79 67-114 118q-65 94-65 207q0 124 69 223t158 126zM1017 42q0 61-29 136q-30 75-93 138q-54 54-108 72q-37 11-104 17q3-149 78-257Q835 41 1011 0q1 3 2.5 11t2.5 11q0 4 .5 10t.5 10z" fill="currentColor"></path></svg>
