<svg width="38" height="38" viewBox="0 0 38 38" fill="none" xmlns="http://www.w3.org/2000/svg">
<g clip-path="url(#clip0)">
<path d="M23.662 23.726H14.267V14.2753H23.662V23.726ZM37.838 7.90963C37.4496 5.65937 36.2141 3.52877 34.4215 2.11147C32.7578 0.741443 30.6259 0.005335 28.4751 0.0035043C22.0967 0.00150717 15.7129 -0.00415132 9.33452 0.00533503C6.00505 0.0432804 2.85941 1.97284 1.23931 4.872C0.339247 6.42793 0.00182837 8.17724 0 9.96068C0.00382297 15.778 -0.00182837 21.5989 0.00182837 27.4162C-0.00947431 28.7691 0.0491999 30.0687 0.471887 31.3665C1.41167 34.3739 3.94713 36.8082 6.97525 37.6562C6.0599 36.9257 5.6545 35.9088 5.35697 34.8083C4.74114 32.3949 4.69377 29.8885 4.79234 27.4162C4.78286 21.5971 4.79599 15.778 4.78469 9.96068C4.79416 8.95895 4.86813 8.01781 5.37974 7.13175C6.16794 5.71828 7.70477 4.77331 9.33452 4.79428C15.3964 4.79045 21.4659 4.79611 27.5277 4.79228C28.443 4.79428 29.2748 4.72587 30.1504 5.05806C31.6056 5.5417 32.7597 6.84516 33.078 8.34417C33.258 9.22457 33.2106 10.2017 33.2124 11.099V28.1751C33.2124 29.0138 33.1197 29.8334 32.7597 30.6C32.0168 32.1557 30.41 33.2353 28.6686 33.2032C23.8704 33.2107 19.0668 33.2012 14.2688 33.2069C14.2595 31.6416 14.2613 30.0744 14.267 28.5073C18.1837 28.5073 22.0987 28.5015 26.0156 28.511C26.8588 28.5566 27.829 28.1297 28.2175 27.3518C28.4372 26.9552 28.4733 26.532 28.4828 26.09C28.4789 21.3448 28.4809 16.6015 28.4809 11.8561C28.5188 10.9777 28.0943 10.194 27.3174 9.77661C26.6693 9.39915 25.9757 9.49585 25.2538 9.48253C20.7703 9.49385 16.2813 9.47687 11.7998 9.49202C10.5168 9.45973 9.44821 10.5773 9.48794 11.8561C9.46899 18.6733 9.48794 25.5284 9.47846 32.3493C9.51453 33.704 9.47082 34.9885 10.2554 36.1611C10.8504 37.1306 11.8567 37.622 12.9386 37.8366C14.2178 38.0433 15.4418 37.994 16.7266 37.9958C20.6433 37.9977 24.5584 37.994 28.4751 37.9997C30.4232 38.0168 32.32 37.3849 33.9193 36.2825C35.6342 35.017 36.9646 33.2715 37.5766 31.2148C37.9991 29.8239 37.9915 28.473 37.9991 27.0368C37.9991 21.5971 38.0011 16.1593 37.9991 10.7196C37.9915 9.78609 37.9822 8.83363 37.838 7.90963Z" fill="url(#paint0_linear)"/>
</g>
<defs>
<linearGradient id="paint0_linear" x1="15" y1="8" x2="33" y2="38" gradientUnits="userSpaceOnUse">
<stop stop-color="#1DADFB"/>
<stop offset="1" stop-color="#1597DD"/>
</linearGradient>
<clipPath id="clip0">
<rect width="38" height="38" fill="white"/>
</clipPath>
</defs>
</svg>
