<?xml version="1.0" encoding="utf-8"?>
<!-- Generator: Adobe Illustrator 24.3.0, SVG Export Plug-In . SVG Version: 6.00 Build 0)  -->
<svg version="1.1" id="Layer_1" xmlns="http://www.w3.org/2000/svg" xmlns:xlink="http://www.w3.org/1999/xlink" x="0px" y="0px"
	 width="161px" height="38px" viewBox="0 0 161 38" style="enable-background:new 0 0 161 38;" xml:space="preserve">
<style type="text/css">
	.st0{fill:#46D593;}
	.st1{fill:#FFFFFF;}
</style>
<path class="st0" d="M24.3,23.5h-8.7v-8.7h8.7V23.5z M37.3,9c-0.4-2.1-1.5-4-3.1-5.3c-1.5-1.3-3.5-1.9-5.5-1.9c-5.9,0-11.8,0-17.6,0
	c-3.1,0-6,1.8-7.5,4.5c-0.8,1.4-1.1,3-1.1,4.7c0,5.4,0,10.7,0,16.1c0,1.2,0,2.4,0.4,3.6c0.9,2.8,3.2,5,6,5.8
	c-0.8-0.7-1.2-1.6-1.5-2.6c-0.6-2.2-0.6-4.5-0.5-6.8c0-5.4,0-10.7,0-16.1c0-0.9,0.1-1.8,0.5-2.6c0.7-1.3,2.1-2.2,3.6-2.2
	c5.6,0,11.2,0,16.8,0c0.8,0,1.6-0.1,2.4,0.2c1.3,0.4,2.4,1.6,2.7,3c0.2,0.8,0.1,1.7,0.1,2.5v15.7c0,0.8-0.1,1.5-0.4,2.2
	c-0.7,1.4-2.2,2.4-3.8,2.4c-4.4,0-8.8,0-13.3,0c0-1.4,0-2.9,0-4.3c3.6,0,7.2,0,10.8,0c0.8,0,1.7-0.4,2-1.1c0.2-0.4,0.2-0.8,0.2-1.2
	c0-4.4,0-8.7,0-13.1c0-0.8-0.4-1.5-1.1-1.9c-0.6-0.3-1.2-0.3-1.9-0.3c-4.1,0-8.3,0-12.4,0c-1.2,0-2.2,1-2.1,2.2c0,6.3,0,12.6,0,18.9
	c0,1.2,0,2.4,0.7,3.5c0.5,0.9,1.5,1.3,2.5,1.5c1.2,0.2,2.3,0.1,3.5,0.1c3.6,0,7.2,0,10.8,0c1.8,0,3.5-0.6,5-1.6
	c1.6-1.2,2.8-2.8,3.4-4.7c0.4-1.3,0.4-2.5,0.4-3.8c0-5,0-10,0-15C37.5,10.7,37.5,9.8,37.3,9"/>
<path class="st0" d="M118.3,18.7c0-1.6-1.1-2.6-2.5-2.6c-1.5,0-2.5,1-2.5,2.6c0,1.6,1.1,2.6,2.5,2.6
	C117.2,21.3,118.3,20.3,118.3,18.7z"/>
<g>
	<path class="st1" d="M58.3,19.4c0,3.2-2.3,5.6-5.1,5.6c-1.4,0-2.5-0.5-3.2-1.3V29h-3.2V14.1H50v1c0.7-0.8,1.7-1.3,3.2-1.3
		C56,13.8,58.3,16.2,58.3,19.4z M55.1,19.4c0-1.6-1.1-2.6-2.5-2.6s-2.5,1-2.5,2.6s1.1,2.6,2.5,2.6S55.1,21,55.1,19.4z"/>
	<path class="st1" d="M71,14.1v10.6h-3.2v-1c-0.7,0.8-1.7,1.3-3.2,1.3c-2.8,0-5.1-2.4-5.1-5.6c0-3.2,2.3-5.6,5.1-5.6
		c1.4,0,2.5,0.5,3.2,1.3v-1H71z M67.8,19.4c0-1.6-1.1-2.6-2.5-2.6c-1.5,0-2.5,1-2.5,2.6s1.1,2.6,2.5,2.6C66.7,22,67.8,21,67.8,19.4z
		"/>
	<path class="st1" d="M79.7,13.9v3.6c-1.3-0.2-3.2,0.3-3.2,2.4v4.8h-3.2V14.1h3.2V16C77,14.6,78.4,13.9,79.7,13.9z"/>
	<path class="st1" d="M85.6,17.2v3.8c0,0.9,0.8,1,2.2,0.9v2.9c-4.2,0.4-5.4-0.8-5.4-3.8v-3.8h-1.7v-3.1h1.7v-2l3.2-1v3h2.2v3.1H85.6
		z"/>
	<path class="st1" d="M89.2,11.2c0-1,0.9-1.9,1.9-1.9c1,0,1.9,0.9,1.9,1.9s-0.9,1.9-1.9,1.9C90.1,13.2,89.2,12.3,89.2,11.2z
		 M89.6,14.1h3.2v10.6h-3.2V14.1z"/>
	<path class="st1" d="M94.6,19.4c0-3.2,2.4-5.6,5.6-5.6c2.1,0,3.9,1.1,4.8,2.7l-2.8,1.6c-0.4-0.7-1.1-1.2-2.1-1.2
		c-1.4,0-2.4,1-2.4,2.5s1,2.5,2.4,2.5c0.9,0,1.7-0.4,2.1-1.2l2.8,1.6c-0.9,1.7-2.7,2.7-4.8,2.7C97,25,94.6,22.6,94.6,19.4z"/>
	<path class="st1" d="M106.3,9.2h3.2v15.5h-3.2V9.2z"/>
	<path class="st1" d="M137.5,14.1l-3.4,10.6h-3l-1.7-5.7l-1.7,5.7h-3l-3.4-10.6h3.4l1.5,5.7l1.7-5.7h3l1.7,5.7l1.5-5.7H137.5z"/>
	<path class="st1" d="M138.5,11.2c0-1,0.9-1.9,1.9-1.9c1,0,1.9,0.9,1.9,1.9s-0.9,1.9-1.9,1.9C139.4,13.2,138.5,12.3,138.5,11.2z
		 M138.8,14.1h3.2v10.6h-3.2V14.1z"/>
	<path class="st1" d="M150.9,24.7l-3.4-4.7v4.7h-3.2V9.8h3.2v8.9l3.2-4.7h3.7l-3.9,5.3l4,5.3H150.9z"/>
	<path class="st1" d="M155.4,11.2c0-1,0.9-1.9,1.9-1.9c1,0,1.9,0.9,1.9,1.9s-0.9,1.9-1.9,1.9C156.3,13.2,155.4,12.3,155.4,11.2z
		 M155.7,14.1h3.2v10.6h-3.2V14.1z"/>
</g>
</svg>
